<svg aria-hidden="true" style="position: absolute; width: 0; height: 0; overflow: hidden;" version="1.1" xmlns="http://www.w3.org/2000/svg" xmlns:xlink="http://www.w3.org/1999/xlink">
<defs>
<symbol id="facebook" viewBox="0 0 19 32">
<path d="M18.258 0.007l-4.435-0.007c-4.982 0-8.202 3.091-8.202 7.875v3.631h-4.459c-0.385 0-0.697 0.292-0.697 0.653v5.261c0 0.361 0.312 0.652 0.697 0.652h4.459v13.275c0 0.361 0.312 0.652 0.697 0.652h5.817c0.385 0 0.697-0.292 0.697-0.652v-13.275h5.213c0.385 0 0.697-0.292 0.697-0.652l0.002-5.261c0-0.173-0.074-0.339-0.204-0.461s-0.308-0.191-0.493-0.191h-5.215v-3.078c0-1.479 0.377-2.231 2.436-2.231l2.987-0.001c0.385 0 0.697-0.292 0.697-0.652v-4.885c0-0.36-0.312-0.652-0.696-0.652z"></path>
</symbol>
<symbol id="youtube" viewBox="0 0 32 32">
<path d="M25.354 4.978h-18.708c-3.67 0-6.646 2.897-6.646 6.47v9.104c0 3.573 2.975 6.47 6.646 6.47h18.708c3.67 0 6.646-2.897 6.646-6.47v-9.104c0-3.573-2.976-6.47-6.646-6.47zM20.859 16.443l-8.75 4.063c-0.233 0.108-0.502-0.057-0.502-0.309v-8.38c0-0.255 0.276-0.42 0.51-0.305l8.75 4.317c0.26 0.128 0.256 0.492-0.008 0.614z"></path>
</symbol>
<symbol id="search" viewBox="0 0 32 32">
<path d="M31.805 29.919l-9.296-9.296c1.763-2.177 2.824-4.944 2.824-7.957 0-6.984-5.682-12.667-12.667-12.667s-12.667 5.682-12.667 12.667c0 6.984 5.682 12.667 12.667 12.667 3.013 0 5.78-1.061 7.957-2.824l9.296 9.296c0.26 0.26 0.682 0.26 0.943 0l0.943-0.943c0.26-0.26 0.26-0.682-0-0.943zM12.667 22.667c-5.514 0-10-4.486-10-10s4.486-10 10-10c5.514 0 10 4.486 10 10s-4.486 10-10 10z"></path>
</symbol>
<symbol id="vk" viewBox="0 0 32 32">
<path d="M31.83 22.88c-0.039-0.078-0.075-0.143-0.108-0.195-0.555-0.935-1.616-2.082-3.182-3.442l-0.033-0.031-0.017-0.015-0.017-0.016h-0.017c-0.711-0.633-1.161-1.059-1.349-1.277-0.345-0.415-0.422-0.836-0.234-1.262 0.133-0.322 0.633-1.002 1.5-2.040 0.456-0.55 0.816-0.991 1.083-1.324 1.922-2.388 2.755-3.914 2.499-4.579l-0.099-0.155c-0.067-0.094-0.239-0.179-0.516-0.257s-0.633-0.091-1.067-0.039l-4.798 0.031c-0.078-0.026-0.189-0.023-0.333 0.008s-0.217 0.047-0.217 0.047l-0.084 0.039-0.066 0.047c-0.056 0.031-0.117 0.085-0.183 0.163s-0.122 0.169-0.166 0.273c-0.522 1.256-1.116 2.424-1.783 3.504-0.411 0.644-0.788 1.202-1.133 1.674s-0.633 0.82-0.866 1.043c-0.233 0.223-0.444 0.402-0.633 0.537s-0.333 0.192-0.433 0.171c-0.1-0.021-0.194-0.042-0.284-0.062-0.155-0.094-0.28-0.221-0.375-0.382s-0.158-0.364-0.192-0.607c-0.033-0.244-0.053-0.454-0.058-0.631s-0.003-0.426 0.008-0.748c0.012-0.322 0.017-0.54 0.017-0.654 0-0.395 0.008-0.823 0.025-1.285s0.030-0.828 0.042-1.098c0.011-0.27 0.017-0.556 0.017-0.857s-0.020-0.537-0.058-0.709c-0.038-0.171-0.097-0.337-0.174-0.498s-0.192-0.285-0.342-0.374c-0.15-0.088-0.336-0.158-0.558-0.21-0.589-0.125-1.338-0.192-2.249-0.202-2.066-0.021-3.393 0.104-3.982 0.374-0.233 0.114-0.444 0.27-0.633 0.467-0.2 0.229-0.228 0.353-0.084 0.374 0.667 0.093 1.138 0.317 1.416 0.67l0.1 0.187c0.078 0.135 0.156 0.374 0.233 0.716s0.128 0.722 0.15 1.137c0.055 0.758 0.055 1.407 0 1.947s-0.108 0.96-0.158 1.262c-0.050 0.301-0.125 0.545-0.225 0.732s-0.167 0.301-0.2 0.343-0.061 0.068-0.083 0.078c-0.144 0.052-0.294 0.078-0.45 0.078s-0.344-0.073-0.566-0.218c-0.222-0.145-0.452-0.345-0.691-0.6s-0.508-0.61-0.808-1.067c-0.3-0.457-0.611-0.997-0.933-1.62l-0.267-0.452c-0.167-0.291-0.394-0.714-0.683-1.269s-0.544-1.093-0.766-1.612c-0.089-0.218-0.222-0.384-0.4-0.498l-0.083-0.047c-0.055-0.041-0.144-0.085-0.266-0.132s-0.25-0.080-0.383-0.101l-4.565 0.031c-0.467 0-0.783 0.099-0.95 0.296l-0.067 0.093c-0.033 0.052-0.050 0.135-0.050 0.249s0.033 0.254 0.1 0.42c0.666 1.464 1.391 2.876 2.174 4.236s1.463 2.456 2.041 3.286c0.578 0.831 1.166 1.615 1.766 2.352s0.997 1.21 1.191 1.417c0.194 0.208 0.347 0.363 0.458 0.467l0.417 0.374c0.267 0.249 0.658 0.548 1.174 0.895s1.089 0.691 1.716 1.028c0.628 0.337 1.358 0.612 2.191 0.825s1.644 0.299 2.433 0.257h1.916c0.389-0.031 0.683-0.146 0.883-0.343l0.066-0.078c0.045-0.062 0.086-0.158 0.125-0.288s0.058-0.273 0.058-0.428c-0.011-0.446 0.025-0.849 0.108-1.207s0.178-0.628 0.284-0.81c0.106-0.182 0.225-0.335 0.358-0.459s0.228-0.2 0.284-0.226c0.055-0.026 0.099-0.044 0.133-0.055 0.267-0.083 0.58-0.003 0.942 0.242s0.7 0.545 1.016 0.903c0.317 0.358 0.697 0.76 1.141 1.207s0.833 0.778 1.166 0.997l0.333 0.187c0.222 0.125 0.511 0.239 0.867 0.343s0.666 0.13 0.933 0.078l4.265-0.062c0.422 0 0.75-0.065 0.983-0.195s0.372-0.273 0.417-0.428c0.045-0.156 0.047-0.332 0.008-0.53s-0.078-0.335-0.117-0.413z"></path>
</symbol>
<symbol id="arrow_left" viewBox="0 0 82 32">
<path d="M0.586 14.586c-0.781 0.781-0.781 2.047 0 2.828l12.728 12.728c0.781 0.781 2.047 0.781 2.828 0s0.781-2.047 0-2.828l-11.314-11.314 11.314-11.314c0.781-0.781 0.781-2.047 0-2.828s-2.047-0.781-2.828 0l-12.728 12.728zM82 14h-80v4h80v-4z"></path>
</symbol>
<symbol id="arrow_right" viewBox="0 0 82 32">
<path d="M81.414 17.414c0.781-0.781 0.781-2.047 0-2.828l-12.728-12.728c-0.781-0.781-2.047-0.781-2.828 0s-0.781 2.047 0 2.828l11.314 11.314-11.314 11.314c-0.781 0.781-0.781 2.047 0 2.828s2.047 0.781 2.828 0l12.728-12.728zM0 18l80 0v-4l-80-0v4z"></path>
</symbol>
<symbol id="stars" viewBox="0 0 256 32">
<path fill="#d1a954" style="fill: var(--color1, #d1a954)" d="M14.667 0l-4.534 10.537-10.133 1.68 7.333 8.206-1.734 11.577 9.067-5.463 9.067 5.463-1.734-11.577 7.333-8.194-10.133-1.691-4.533-10.537z"></path>
<path fill="#d1a954" style="fill: var(--color1, #d1a954)" d="M71.081 0l-4.533 10.537-10.133 1.68 7.333 8.206-1.734 11.577 9.067-5.463 9.067 5.463-1.734-11.577 7.333-8.194-10.133-1.691-4.534-10.537z"></path>
<path fill="#d1a954" style="fill: var(--color1, #d1a954)" d="M127.496 0l-4.533 10.537-10.133 1.68 7.333 8.206-1.734 11.577 9.067-5.463 9.068 5.463-1.735-11.577 7.333-8.194-10.133-1.691-4.533-10.537z"></path>
<path fill="#d1a954" style="fill: var(--color1, #d1a954)" d="M183.911 0l-4.533 10.537-10.133 1.68 7.333 8.206-1.733 11.577 9.067-5.463 9.068 5.463-1.735-11.577 7.333-8.194-10.133-1.691-4.533-10.537z"></path>
<path fill="#d1a954" style="fill: var(--color1, #d1a954)" d="M240.325 0l-4.533 10.537-10.133 1.68 7.333 8.206-1.733 11.577 9.067-5.463 9.068 5.463-1.735-11.577 7.333-8.194-10.132-1.691-4.535-10.537z"></path>
</symbol>
<symbol id="instagram" viewBox="0 0 32 32">
<path  d="M22 0h-12c-5.522 0-10 4.478-10 10v12c0 5.522 4.478 10 10 10h12c5.522 0 10-4.478 10-10v-12c0-5.522-4.478-10-10-10zM29 22c0 3.86-3.14 7-7 7h-12c-3.86 0-7-3.14-7-7v-12c0-3.86 3.14-7 7-7h12c3.86 0 7 3.14 7 7v12z"></path>
<path d="M16 8c-4.418 0-8 3.582-8 8s3.582 8 8 8c4.418 0 8-3.582 8-8s-3.582-8-8-8zM16 21c-2.756 0-5-2.244-5-5 0-2.758 2.244-5 5-5s5 2.242 5 5c0 2.756-2.244 5-5 5z"></path>
<path d="M24.597 8.466c0.589 0 1.066-0.477 1.066-1.066s-0.477-1.066-1.066-1.066-1.066 0.477-1.066 1.066c0 0.589 0.477 1.066 1.066 1.066z"></path>
</symbol>
<symbol id="close" viewBox="0 0 32 32">
<path d="M24 9.4l-1.4-1.4-6.6 6.6-6.6-6.6-1.4 1.4 6.6 6.6-6.6 6.6 1.4 1.4 6.6-6.6 6.6 6.6 1.4-1.4-6.6-6.6 6.6-6.6z"></path>
</symbol>
<symbol id="menu" viewBox="0 0 32 32">
<path d="M5.333 14.667h16v2.667h-16v-2.667zM5.333 8h21.333v2.667h-21.333v-2.667zM5.333 24h9.647v-2.667h-9.647v2.667z"></path>
</symbol>
<symbol id="theatre" viewBox="0 0 32 32">
<path  d="M31.509 15.379v-13.58c0-0.259-0.21-0.469-0.469-0.469h-30.080c-0.259 0-0.469 0.21-0.469 0.469v13.58c-0.291 0.154-0.491 0.46-0.491 0.812v0.964c0 0.352 0.199 0.658 0.491 0.812v12.234c0 0.259 0.21 0.469 0.469 0.469h30.080c0.259 0 0.469-0.21 0.469-0.469v-12.234c0.291-0.154 0.491-0.46 0.491-0.812v-0.964c0-0.352-0.199-0.658-0.491-0.812zM30.393 2.269c-0.188 0.276-0.535 0.6-1.085 0.946-0.007 0.004-0.014 0.008-0.020 0.013-0.032 0.020-0.065 0.040-0.098 0.060-0.015 0.009-0.030 0.018-0.046 0.027-0.025 0.015-0.051 0.030-0.077 0.045-0.021 0.012-0.042 0.024-0.063 0.036s-0.042 0.023-0.063 0.035c-0.026 0.015-0.052 0.029-0.079 0.044-0.005 0.003-0.010 0.005-0.014 0.008-0.068 0.037-0.138 0.074-0.211 0.11-0.019 0.010-0.038 0.020-0.058 0.030-0.028 0.014-0.056 0.028-0.084 0.042-0.026 0.013-0.052 0.026-0.079 0.038-0.025 0.012-0.051 0.024-0.077 0.037-0.033 0.016-0.066 0.031-0.1 0.047-0.021 0.010-0.042 0.019-0.063 0.029-0.046 0.021-0.093 0.042-0.141 0.063-0.010 0.005-0.021 0.009-0.031 0.014-0.192 0.084-0.396 0.169-0.614 0.253-0 0-0 0-0 0-0.281 0.109-0.581 0.217-0.902 0.323-0.869 0.287-1.805 0.535-2.79 0.744-0.016 0.002-0.031 0.004-0.047 0.007-0.935 0.196-1.919 0.356-2.925 0.478-0.013 0.002-0.025 0.004-0.038 0.007-1.514 0.181-3.093 0.275-4.689 0.275s-3.175-0.094-4.689-0.275c-0.012-0.003-0.025-0.005-0.037-0.007-1.006-0.122-1.99-0.282-2.925-0.478-0.016-0.003-0.031-0.006-0.047-0.007-0.985-0.208-1.921-0.457-2.79-0.744-0.321-0.106-0.621-0.214-0.902-0.323-0 0-0-0-0-0-0.217-0.084-0.421-0.169-0.613-0.253-0.011-0.005-0.021-0.009-0.031-0.014-0.048-0.021-0.095-0.042-0.141-0.063-0.021-0.010-0.042-0.019-0.063-0.029-0.034-0.016-0.067-0.031-0.1-0.047-0.026-0.012-0.052-0.024-0.077-0.037-0.027-0.013-0.053-0.026-0.079-0.038-0.028-0.014-0.057-0.028-0.084-0.042-0.020-0.010-0.039-0.020-0.058-0.030-0.071-0.036-0.141-0.073-0.209-0.109-0.005-0.003-0.011-0.006-0.017-0.009-0.027-0.014-0.053-0.029-0.079-0.044-0.021-0.012-0.043-0.024-0.063-0.035s-0.042-0.024-0.063-0.036c-0.026-0.015-0.052-0.030-0.077-0.045-0.015-0.009-0.031-0.018-0.046-0.027-0.033-0.020-0.066-0.040-0.098-0.060-0.007-0.004-0.014-0.008-0.020-0.013-0.55-0.345-0.897-0.669-1.085-0.946l28.787-0zM1.429 3.46c0.145 0.125 0.311 0.253 0.499 0.382 0.499 0.345 1.164 0.704 2.046 1.063-0.001 2.949-0.861 6.231-1.597 8.499-0.080 0.247 0.055 0.511 0.302 0.591s0.511-0.055 0.591-0.302c0.728-2.245 1.574-5.462 1.638-8.439 0.101 0.035 0.204 0.070 0.309 0.105 0.765 0.253 1.581 0.477 2.435 0.671-0.992 3.079-2.61 5.617-3.822 7.234-0.155 0.207-0.113 0.502 0.094 0.657 0.084 0.063 0.183 0.094 0.281 0.094 0.143 0 0.284-0.065 0.376-0.188 1.268-1.692 2.966-4.358 3.995-7.602 0.647 0.127 1.312 0.237 1.991 0.329-0.994 2.436-2.984 4.946-4.533 6.674-0.173 0.193-0.157 0.49 0.036 0.663s0.49 0.157 0.663-0.036c2.888-3.222 4.2-5.637 4.796-7.182 1.45 0.16 2.954 0.244 4.47 0.244s3.020-0.084 4.47-0.244c1.015 2.64 3.15 5.347 4.8 7.187 0.173 0.193 0.47 0.209 0.663 0.036s0.209-0.47 0.036-0.663c-1.551-1.729-3.542-4.241-4.537-6.678 0.68-0.093 1.345-0.203 1.991-0.329 1.031 3.248 2.731 5.917 4.001 7.61 0.092 0.123 0.233 0.188 0.376 0.188 0.098 0 0.197-0.031 0.281-0.094 0.207-0.156 0.249-0.45 0.094-0.657-1.215-1.619-2.835-4.159-3.828-7.242 0.854-0.194 1.669-0.418 2.435-0.671 0.105-0.035 0.208-0.070 0.309-0.105 0.064 2.976 0.909 6.191 1.637 8.434 0.080 0.247 0.345 0.382 0.591 0.302s0.382-0.345 0.302-0.591c-0.735-2.267-1.595-5.547-1.595-8.494 0.883-0.359 1.547-0.718 2.046-1.063 0.188-0.129 0.354-0.257 0.499-0.382v11.812h-2.604c-0.507 0-0.919 0.412-0.919 0.919v0.964c0 0.25 0.1 0.476 0.263 0.642-0.284 0.864-0.623 1.949-0.948 3.123h-20.724c-0.325-1.175-0.664-2.259-0.948-3.123 0.162-0.166 0.263-0.392 0.263-0.642v-0.964c0-0.507-0.412-0.919-0.919-0.919h-2.604v-11.812zM0.939 17.135v-0.924h3.075v0.924h-3.075zM3.354 29.578c-0.052 0.094-0.152 0.153-0.262 0.153h-1.663v-11.658h0.45c1.71 5.789 2.262 10.077 1.475 11.505zM5.656 29.731v-2.591c0-0.558 0.454-1.012 1.012-1.012h2.438c0.558 0 1.012 0.454 1.012 1.012v2.591h-4.462zM11.057 29.731v-2.591c0-0.558 0.454-1.012 1.012-1.012h2.438c0.558 0 1.012 0.454 1.012 1.012v2.591h-4.462zM16.458 29.731v-2.591c0-0.558 0.454-1.012 1.012-1.012h2.438c0.558 0 1.012 0.454 1.012 1.012v2.591h-4.462zM26.32 29.731h-4.462v-2.591c0-0.558 0.454-1.012 1.012-1.012h2.438c0.558 0 1.012 0.454 1.012 1.012v2.591zM27.259 29.731v-2.591c0-1.076-0.875-1.951-1.951-1.951h-2.438c-0.592 0-1.123 0.266-1.481 0.684-0.358-0.418-0.889-0.684-1.481-0.684h-2.438c-0.592 0-1.123 0.266-1.481 0.684-0.358-0.418-0.889-0.684-1.481-0.684h-2.438c-0.592 0-1.123 0.266-1.481 0.684-0.358-0.418-0.889-0.684-1.481-0.684h-2.438c-1.076 0-1.951 0.875-1.951 1.951v2.591h-0.401c0.952-2.405-0.408-8.052-1.459-11.658h0.935c0.444 1.347 1.024 3.244 1.469 5.17 0.058 0.253 0.31 0.41 0.563 0.352s0.41-0.31 0.352-0.563c-0.091-0.394-0.187-0.787-0.287-1.174h20.222c-0.101 0.391-0.198 0.787-0.29 1.185-0.058 0.253 0.099 0.505 0.352 0.563 0.035 0.008 0.071 0.012 0.106 0.012 0.214 0 0.407-0.147 0.457-0.364 0.445-1.93 1.027-3.832 1.471-5.182h0.935c-1.050 3.606-2.41 9.253-1.459 11.658h-0.425zM30.571 29.731h-1.663c-0.11 0-0.21-0.059-0.262-0.153-0.786-1.428-0.235-5.716 1.475-11.505h0.45v11.658zM31.061 17.135h-3.075v-0.924h3.075v0.924z"></path>
</symbol>
<symbol id="armchair" viewBox="0 0 32 32">
<path d="M12.648 5.732h-0.432v-0.432c0-0.259-0.21-0.469-0.469-0.469s-0.469 0.21-0.469 0.469v0.432h-0.432c-0.259 0-0.469 0.21-0.469 0.469s0.21 0.469 0.469 0.469h0.432v0.432c0 0.259 0.21 0.469 0.469 0.469s0.469-0.21 0.469-0.469v-0.432h0.432c0.259 0 0.469-0.21 0.469-0.469s-0.21-0.469-0.469-0.469z"></path>
<path fill="#fff" style="fill: var(--color1, #fff)" d="M21.153 5.732h-0.432v-0.432c0-0.259-0.21-0.469-0.469-0.469s-0.469 0.21-0.469 0.469v0.432h-0.432c-0.259 0-0.469 0.21-0.469 0.469s0.21 0.469 0.469 0.469h0.432v0.432c0 0.259 0.21 0.469 0.469 0.469s0.469-0.21 0.469-0.469v-0.432h0.432c0.259 0 0.469-0.21 0.469-0.469s-0.21-0.469-0.469-0.469z"></path>
<path fill="#fff" style="fill: var(--color1, #fff)" d="M12.648 12.174h-0.432v-0.432c0-0.259-0.21-0.469-0.469-0.469s-0.469 0.21-0.469 0.469v0.432h-0.432c-0.259 0-0.469 0.21-0.469 0.469s0.21 0.469 0.469 0.469h0.432v0.432c0 0.259 0.21 0.469 0.469 0.469s0.469-0.21 0.469-0.469v-0.432h0.432c0.259 0 0.469-0.21 0.469-0.469s-0.21-0.469-0.469-0.469z"></path>
<path fill="#fff" style="fill: var(--color1, #fff)" d="M21.153 12.174h-0.432v-0.432c0-0.259-0.21-0.469-0.469-0.469s-0.469 0.21-0.469 0.469v0.432h-0.432c-0.259 0-0.469 0.21-0.469 0.469s0.21 0.469 0.469 0.469h0.432v0.432c0 0.259 0.21 0.469 0.469 0.469s0.469-0.21 0.469-0.469v-0.432h0.432c0.259 0 0.469-0.21 0.469-0.469s-0.21-0.469-0.469-0.469z"></path>
<path fill="#fff" style="fill: var(--color1, #fff)" d="M29.009 13.281h-6.207c-0.53 0-0.962 0.431-0.962 0.962v1.27c0 0.53 0.431 0.962 0.962 0.962h0.090v2.123c-0.418-0.329-0.944-0.526-1.515-0.526h-10.878c-0.571 0-1.097 0.197-1.515 0.526v-2.128h0.214c0.53 0 0.962-0.431 0.962-0.961v-1.27c0-0.53-0.431-0.962-0.962-0.962h-6.207c-0.53 0-0.962 0.431-0.962 0.962v1.27c0 0.53 0.431 0.961 0.962 0.961h0.214v5.986c0 0.958 0.738 1.746 1.674 1.827v0.935c0 0.743 0.604 1.347 1.347 1.347h1.075v4.497h-0.671c-0.259 0-0.469 0.21-0.469 0.469s0.21 0.469 0.469 0.469h4.686c0.259 0 0.469-0.21 0.469-0.469s-0.21-0.469-0.469-0.469h-0.672v-4.497h10.587v4.497h-0.672c-0.259 0-0.469 0.21-0.469 0.469s0.21 0.469 0.469 0.469h4.686c0.259 0 0.469-0.21 0.469-0.469s-0.21-0.469-0.469-0.469h-0.672v-4.497h1.075c0.743 0 1.347-0.604 1.347-1.347v-0.935c0.937-0.082 1.674-0.87 1.674-1.827v-5.982h0.337c0.53 0 0.962-0.431 0.962-0.962v-1.27c-0-0.53-0.431-0.962-0.962-0.962zM10.499 19.009h10.878c0.835 0 1.515 0.68 1.515 1.515v2.828h-13.908v-2.828c0-0.835 0.68-1.515 1.515-1.515zM2.992 15.531c-0.013 0-0.023-0.011-0.023-0.024v-1.27c0-0.013 0.011-0.024 0.023-0.024h6.207c0.013 0 0.024 0.011 0.024 0.024v1.27c0 0.013-0.011 0.024-0.024 0.024h-6.207zM5.040 23.352c-0.495-0-0.897-0.402-0.897-0.897v-5.986h3.903v6.883h-3.006zM9.707 31.062h-1.467v-4.497h1.467v4.497zM23.637 31.062h-1.467v-4.497h1.467v4.497zM26.059 25.218c0 0.226-0.184 0.409-0.409 0.409h-19.423c-0.226 0-0.409-0.184-0.409-0.409v-0.928h20.241v0.928zM27.733 22.455c0 0.495-0.402 0.897-0.897 0.897h-3.006v-6.878h3.903v5.982zM29.032 15.512c0 0.013-0.011 0.024-0.023 0.024h-6.207c-0.013 0-0.024-0.011-0.024-0.024v-1.27c0-0.013 0.011-0.024 0.024-0.024h6.207c0.013 0 0.023 0.011 0.023 0.024v1.27z"></path>
<path fill="#fff" style="fill: var(--color1, #fff)" d="M26.375 3.865c0-2.131-1.734-3.865-3.865-3.865h-13.145c-2.131 0-3.865 1.734-3.865 3.865v7.686c0 0.259 0.21 0.469 0.469 0.469s0.469-0.21 0.469-0.469v-7.686c0-1.614 1.313-2.927 2.927-2.927h13.145c1.614 0 2.927 1.313 2.927 2.929l0.036 7.686c0.001 0.258 0.211 0.467 0.469 0.467 0.001 0 0.002 0 0.002 0 0.259-0.001 0.468-0.212 0.467-0.471l-0.036-7.684z"></path>
</symbol>
</defs>
</svg>
